<svg xmlns="http://www.w3.org/2000/svg" viewBox="0 0 1305.15 300"><defs><style>.cls-1{fill:#3b3b38;}.cls-2{fill:none;}.cls-3{fill:#7373e5;}.cls-4{fill:#39abd8;}.cls-5{fill:#40cc7f;}.cls-6{fill:#e2c033;}.cls-7{fill:#e57239;}.cls-8{fill:#dd4372;}</style></defs><title>logo-h-c-w_1</title><g id="レイヤー_2" data-name="レイヤー 2"><g id="横カラー白"><path class="cls-1" d="M235.48,225.5a92.2,92.2,0,0,1-19.82-2.14,55.89,55.89,0,0,1-15.91-5.68l3.35-29A53.5,53.5,0,0,0,228.22,195q11.55,0,16.75-6t5.21-19.16V81.08h37.41v91.19Q287.59,225.51,235.48,225.5Z"/><path class="cls-1" d="M350.88,225.5a56,56,0,0,1-26.52-6.33,48.7,48.7,0,0,1-19.17-18A50,50,0,0,1,298,174.51a50.93,50.93,0,0,1,6.6-25.59,48.82,48.82,0,0,1,18.71-18.52,54.66,54.66,0,0,1,27.54-6.89,56.07,56.07,0,0,1,26.52,6.33,48.16,48.16,0,0,1,19.08,18.06A53.35,53.35,0,0,1,397,200a48.83,48.83,0,0,1-18.61,18.52A54.11,54.11,0,0,1,350.88,225.5Zm0-29.78a18,18,0,0,0,14-5.95q5.4-6,5.4-15.26t-5.4-15.26a18,18,0,0,0-14-6,18.26,18.26,0,0,0-14.05,6q-5.49,6-5.49,15.26t5.49,15.26A18.25,18.25,0,0,0,350.88,195.72Z"/><path class="cls-1" d="M534.78,81.08h51.55q26.34,0,41.11,12.89t14.77,35.47a44,44,0,0,1-5.64,21.91,42.3,42.3,0,0,1-16,16.09l35.56,56.63h-41.4l-25-46.28h-2.91q-1.8,0-3.39.09c-1.07.07-1.79.1-2.16.1H570.91v46.09H534.78Zm36.13,68.3h10.35q24.82,0,24.83-20.13,0-10-6-14.77t-18.44-4.8H570.91Z"/><path class="cls-1" d="M695,225.5a41,41,0,0,1-22.33-6.23,43.3,43.3,0,0,1-15.63-17.78Q651.3,190,651.3,174.88a58.85,58.85,0,0,1,5.58-25.78,46.39,46.39,0,0,1,15.82-18.61,40.34,40.34,0,0,1,23.26-7,34.18,34.18,0,0,1,15.82,3.73,29.2,29.2,0,0,1,11.54,10.42l.38-11.17h31.45v96H723.7l-.38-11a28.41,28.41,0,0,1-11.63,10.33A37.12,37.12,0,0,1,695,225.5Zm9.12-29.78a18,18,0,0,0,14-5.95q5.4-6,5.4-15.26t-5.4-15.26a18,18,0,0,0-14-6,18.27,18.27,0,0,0-14,6q-5.49,6-5.49,15.26t5.49,15.26A18.26,18.26,0,0,0,704.15,195.72Z"/><path class="cls-1" d="M788.85,111.42a18.71,18.71,0,0,1-13.4-5.12,16.84,16.84,0,0,1-5.4-12.75,17.16,17.16,0,0,1,5.4-12.84,19.84,19.84,0,0,1,26.8,0,17.19,17.19,0,0,1,5.39,12.84,16.87,16.87,0,0,1-5.39,12.75A18.74,18.74,0,0,1,788.85,111.42ZM772.1,126.49h33.5v96H772.1Z"/><path class="cls-1" d="M822.17,126.49h32.75l.37,11.91a25,25,0,0,1,10.8-11,34.85,34.85,0,0,1,16.75-3.91q16.56,0,25,10.33t8.47,30.25v58.43h-33.5V170.41q0-17.11-12.84-17.12-6.9,0-10.61,4.75c-2.49,3.16-3.72,7.72-3.72,13.68v50.8h-33.5Z"/><path class="cls-1" d="M1093.91,225.5a56,56,0,0,1-26.52-6.33,48.63,48.63,0,0,1-19.17-18,50,50,0,0,1-7.17-26.61,50.94,50.94,0,0,1,6.61-25.59,48.79,48.79,0,0,1,18.7-18.52,54.73,54.73,0,0,1,27.55-6.89,56.07,56.07,0,0,1,26.52,6.33,48.07,48.07,0,0,1,19.07,18.06,50.43,50.43,0,0,1,7.08,26.61,51,51,0,0,1-6.52,25.49,48.83,48.83,0,0,1-18.61,18.52A54.13,54.13,0,0,1,1093.91,225.5Zm0-29.78a18,18,0,0,0,14-5.95q5.39-6,5.39-15.26t-5.39-15.26a18,18,0,0,0-14-6,18.26,18.26,0,0,0-14.05,6q-5.49,6-5.49,15.26t5.49,15.26A18.25,18.25,0,0,0,1093.91,195.72Z"/><path class="cls-1" d="M1146.78,126.49h34.61l13,59,17.68-59h27.17l18.24,58.81,13-58.81h34.61l-30.89,96h-29.78l-19.35-56.2-18.43,56.2h-29Z"/><path class="cls-1" d="M513.29,147.52a43.47,43.47,0,0,0-15.63-17.77,40.93,40.93,0,0,0-22.34-6.24,37.23,37.23,0,0,0-15.17,3.08,29.64,29.64,0,0,0-11.44,8.65V80h-33.5V222.52h31.45l.37-11a28.75,28.75,0,0,0,11.45,10.33,34.67,34.67,0,0,0,15.91,3.63,40.39,40.39,0,0,0,23.27-7,46.24,46.24,0,0,0,15.81-18.61,58.64,58.64,0,0,0,5.59-25.77Q519.06,159.05,513.29,147.52Zm-33,42.25a18.25,18.25,0,0,1-14.05,5.95,17.94,17.94,0,0,1-13.95-5.95q-5.4-6-5.4-15.26t5.4-15.26a17.94,17.94,0,0,1,13.95-6,18.26,18.26,0,0,1,14.05,6q5.49,6,5.49,15.26T480.25,189.77Z"/><path class="cls-1" d="M1012.41,129.75a40.89,40.89,0,0,0-22.33-6.24,37.2,37.2,0,0,0-15.17,3.08,29.57,29.57,0,0,0-11.44,8.65V80.67H930V222.52h31.45l.37-11a28.69,28.69,0,0,0,11.45,10.33,34.65,34.65,0,0,0,15.91,3.63,40.34,40.34,0,0,0,23.26-7,46.26,46.26,0,0,0,15.82-18.61,58.78,58.78,0,0,0,5.58-25.77q0-15.09-5.77-26.62A43.33,43.33,0,0,0,1012.41,129.75Zm-17.4,60a18.26,18.26,0,0,1-14,5.95,18,18,0,0,1-14-5.95q-5.4-6-5.4-15.26t5.4-15.26a18,18,0,0,1,14-6,18.27,18.27,0,0,1,14,6q5.49,6,5.49,15.26T995,189.77Z"/><path class="cls-1" d="M59.34,227.65a9.73,9.73,0,0,1-13.76,0L34.84,216.91,17.23,199.29,0,182.07v39.42A8.3,8.3,0,0,0,2.07,227l70.66,70.17a9.73,9.73,0,0,0,13.76,0l70.66-70.66a7,7,0,0,0,2.07-5V127.77Z"/><polygon class="cls-2" points="72.73 2.85 2.85 72.73 2.85 72.73 72.73 2.85 72.73 2.85"/><path class="cls-2" d="M59.34,227.65a9.73,9.73,0,0,1-13.76,0L34.84,216.91,17.23,199.29,0,182.07v38.32a10.9,10.9,0,0,0,2.85,7.36l67.38,66.9a13.27,13.27,0,0,0,18.76,0l67.38-66.9a10.85,10.85,0,0,0,2.85-7.36V127.77Z"/><path class="cls-3" d="M86.49,2.85a9.73,9.73,0,0,0-13.76,0L2.85,72.73A9.76,9.76,0,0,0,0,79.61v31.21L97.23,13.59Z"/><polygon class="cls-4" points="97.23 13.59 0 110.81 0 146.05 114.84 31.2 97.23 13.59"/><polygon class="cls-5" points="114.84 31.2 0 146.05 0 181.28 132.46 48.82 114.84 31.2"/><polygon class="cls-6" points="150.08 66.44 132.46 48.82 0 181.28 0 182.07 17.23 199.29 150.08 66.44"/><path class="cls-7" d="M34.84,216.91,159.22,92.53V79.61a9.72,9.72,0,0,0-2.85-6.88l-6.29-6.29L17.23,199.29Z"/><path class="cls-8" d="M45.58,227.65a9.73,9.73,0,0,0,13.76,0l99.88-99.88V92.53L34.84,216.91Z"/></g></g></svg>