<?xml version="1.0" encoding="utf-8"?>
<!-- Generator: Adobe Illustrator 24.1.0, SVG Export Plug-In . SVG Version: 6.00 Build 0)  -->
<svg version="1.1" id="レイヤー_1" xmlns="http://www.w3.org/2000/svg" xmlns:xlink="http://www.w3.org/1999/xlink" x="0px"
	 y="0px" viewBox="0 0 857.1 612" style="enable-background:new 0 0 857.1 612;" xml:space="preserve">
<style type="text/css">
	.st0{fill:#0A51A1;}
</style>
<g id="レイヤー_2-2">
	<path class="st0" d="M583.8,147c0,77.9-42.4,106.3-72.3,124c-11.8,6.9-16,15.1-13.2,27.2c7,30.4,30.8,74.3,38.6,84.3
		c7.9,10,29.5,12.8,34.5,14.8c17.1,7,16.3,37.5-4,37.5h-92.8c-5.1,0-10.8-0.8-13.1-9.3c-1.4-5.1-26.8-105.1-27.7-108.6
		s-2.6-6.2-5.4-6.2c-5.8,0-8.8,9.8-12.8,19.3s-35.4,94.2-37.5,97.8s-5.1,7.1-10.7,7.1h-91c-10.8,0-9.6-9.5-3.3-13.4
		c5.6-3.5,18-6.2,26.1-8.8c13.3-4.2,32.1-16.3,42.6-38.8s16.1-44.5,17.7-55c2.5-15.5-4.4-28-15-32.9
		c-93.7-44.1-89.9-147.1-48.2-212.8C325.4,27.3,375.8-0.3,430,0C509.7,0,583.8,63.6,583.8,147z M428.1,36.3
		c-53.9,0-97,36.3-113.2,80.5c-19.9,54.1-5,89.6,20.5,112.5c15.6,14.1,51,3.8,66-33.4c0.7-1.8,4.2-2.4,5.5-2.7
		c7-1.2,13.7-4,19.5-8.2c4.4-3.2,4-9.8-0.9-8.6c-3.9,0.9-13.1,5.2-17.7,6.5c-3.3,0.9-3-1.9-3-1.9s1.3-3.9,2.3-8.9
		c1-4.7-0.6-6.3-6.8-3.2c-2.8,1.4-7.7,3.9-9.8,3.9s-6.1-2-4.9-5.9c11.8-39.3,24-45.4,30.8-47.3c14.7-4.1,31.3,3,35.5,18.7
		c3.5,13,1.6,15.8,3.2,28.5c2.1,16.2-2.4,44.2,24,51.9c40.2,11.7,84.1-46.4,61.7-108.6C529,77.6,488.6,36.3,428.1,36.3z
		 M414.1,151.8c3.2,0,5.8-2.6,5.8-5.8c0-3.2-2.6-5.8-5.8-5.8c-3.2,0-5.8,2.6-5.8,5.8c0,0,0,0,0,0
		C408.4,149.2,410.9,151.8,414.1,151.8z"/>
	<path d="M493.5,555.9c-22.2,0-40.3-18-40.3-40.3c0-22.2,18-40.3,40.3-40.3v2c-12,0-21,10.7-21,38.3s9,38.3,21,38.3V555.9z"/>
	<path d="M499.2,517.9v2.4h12c0,20.3-4.4,33.5-17.8,33.5v2c18.8,0,34.6-10.8,35-35.6h9.4v-2.4L499.2,517.9z"/>
	<path d="M135.6,475.3c22.2,0,40.3,18,40.3,40.3c0,22.2-18,40.3-40.3,40.3c-22.2,0-40.3-18-40.3-40.3
		C95.3,493.3,113.3,475.3,135.6,475.3z M157.3,515.6c0-27.6-9.7-38.3-21.7-38.3s-21.7,10.7-21.7,38.3s9.7,38.3,21.7,38.3
		S157.3,543.1,157.3,515.6L157.3,515.6z"/>
	<polygon points="90.2,479.7 90.2,477.3 60.7,477.3 45.5,522.8 31.8,477.3 0,477.3 0,479.7 10,479.7 10,551.4 0,551.4 0,553.8 
		23.5,553.8 23.5,551.4 13.5,551.4 13.5,484.7 35.6,553.8 38.9,553.8 62.3,483.6 62.3,551.4 52.8,551.4 52.8,553.8 90.2,553.8 
		90.2,551.4 80.7,551.4 80.7,479.7 	"/>
	<path d="M331.4,534.7c0,16.7-16.7,16.7-16.7,16.7h-21.6v-37.8h7.7c0,0,9.2,0,9.2,13.2h2.2v-29.1h-2.2c0,13.2-9.2,13.2-9.2,13.2
		h-7.7v-31.3h19.6c0,0,16.7,0,16.7,16.6h2.4v-19h-66.5v2.4h9.4v71.7h-9.4v2.4h68.5v-19.1H331.4z"/>
	<rect x="341" y="551.4" width="26.2" height="2.4"/>
	<polygon points="414.4,551.4 385.2,505.4 401.9,479.7 413.5,479.7 413.5,477.3 403.5,477.3 403.5,477.3 399.4,477.3 399.4,477.3 
		387.3,477.3 387.3,479.7 397.8,479.7 383.1,502.2 368.8,479.7 376.9,479.7 376.9,477.3 340.4,477.3 340.4,479.7 347.4,479.7 
		372.3,518.8 351,551.5 355.2,551.5 374.4,522 393.1,551.4 385.1,551.4 385.1,553.8 421.5,553.8 421.5,551.4 	"/>
	<path d="M235.4,477.3v2.4h10v44.2l-35.1-46.6h-30.1v2.4h10v71.7h-10v2.4h23.5v-2.4h-10v-69.3l52.6,72.7h2.6v-75.1h10v-2.4H235.4z
		 M191.8,479.7L191.8,479.7z"/>
	<path d="M768.8,479.7h10v-2.4h-23.5v2.4h10v50.4c0,9.9-8,17.8-17.9,17.9c-9.9,0-17.9-6.3-17.9-17.9v-50.4h9.4v-2.4h-37.3v2.4h9.4
		v46.9c0,15.9,12.9,28.8,28.8,28.8c0,0,0,0,0,0c15.9,0,28.8-9.9,28.8-27.5V479.7z"/>
	<path d="M657.3,475.3c22.2,0,40.3,18,40.3,40.3s-18,40.3-40.3,40.3s-40.3-18-40.3-40.3S635.1,475.3,657.3,475.3L657.3,475.3z
		 M679.1,515.6c0-27.6-9.7-38.3-21.7-38.3s-21.7,10.7-21.7,38.3s9.7,38.3,21.7,38.3S679.1,543.1,679.1,515.6L679.1,515.6z"/>
	<path d="M575.4,512.8H566v2.5h6.3c3.9,0.1,7.6,1.5,10.5,4.1c3,2.5,4.3,9,4.9,18.5c0.8,11.4,8.8,17.5,18.3,17.5
		c3.6-0.1,7.2-0.5,10.7-1.4v-2.8c-6,1.1-10.9-2.3-11.3-7.6c-1.2-17.1-6.2-27.8-23.6-30"/>
	<path d="M493.5,475.3c7.7-0.2,15.3,1.9,21.8,6l4.6-4.8h2.3v22.1h-3.1c-2.8-12-11.8-21.2-25.6-21.2"/>
	<path d="M566,515v36.4h9.4v2.4h-37.3v-2.4h9.4v-71.7h-9.4v-2.4h38.3c12.6,0,30.7,2,30.7,18.5c0,11.7-14.3,18-25.8,18.2 M566,512.8
		h10.2c8.7,0,14.1-4.4,14.1-17.5c0-18.4-10.1-15.2-24.3-15.6V512.8z"/>
	<path d="M813.2,517.9c10.5,0,22.5,0.3,28.9-1.8c8-2.6,15-7.8,15-18.5s-7-15.8-15-18.5c-6.5-2.1-18.5-1.8-28.9-1.8h-27.9v2.4h9.5
		v71.7h-9.5v2.4h37.3v-2.4h-9.4V517.9z M813.2,479.7h14.4c10,0,11.7,10.1,11.7,18.1c0,10.8-3.6,17.5-15.2,17.7h-10.9V479.7z"/>
	<path d="M435.1,599.9h1.9v0.9h-9.2v-0.9h2.1v-15.5h-2.1v-0.9h7.3L435.1,599.9z"/>
	<path d="M478.2,598h-0.1c-1.2,1.9-3.4,2.9-5.6,2.8c-2.9-0.1-5.3-2.5-5.2-5.5v-10.9h-2.1v-0.9h9.3v0.9h-2v12.3
		c0,1.2,0.9,2.3,2.2,2.3c0.1,0,0.2,0,0.2,0c1.6,0,3.2-2.2,3.4-2.8v-11.7h-1.9v-0.9h9.3v0.9h-2v15.5h2.1v0.9h-7.4L478.2,598z"/>
	<path d="M434.9,587.2c1.4-2.3,3.3-3.7,5.7-3.7c1.7,0,3.4,0.9,3.4,2.8c0.1,1.3-0.9,2.4-2.2,2.5c-1.3,0.1-2.4-0.9-2.5-2.2
		c0-0.1,0-0.2,0-0.3c0-0.2,0-0.4,0.1-0.7c0.2-0.5,0-0.7-0.3-0.7c-0.7,0.1-1.4,0.4-1.9,0.9c-1.6,1.6-2.3,3.5-2.3,6.9"/>
	<path d="M313.8,582.9c-5.1,0-9.2,4.1-9.2,9.2c0,5.1,4.1,9.2,9.2,9.2c5.1,0,9.2-4.1,9.2-9.2l0,0C323,587,318.9,582.9,313.8,582.9z
		 M313.8,600.5c-2.7,0-4-2.3-4-8.3s1.2-8.3,4-8.3s3.9,2.3,3.9,8.3S316.5,600.5,313.8,600.5z"/>
	<polygon points="382.8,599.9 376.4,590.1 380.8,584.4 383.2,584.4 383.2,583.5 377,583.5 377,584.4 379.4,584.4 375.7,589.2 
		372.6,584.4 374.1,584.4 374.1,583.5 365.1,583.5 365.1,584.4 366.9,584.4 372.6,593.2 367.4,599.9 365,599.9 365,600.8 
		371.1,600.8 371.1,599.9 368.8,599.9 373.3,594.1 377.1,599.9 375.5,599.9 375.5,600.8 384.6,600.8 384.6,599.9 	"/>
	<path d="M332,586.3h0.1c1.2-1.9,3.4-2.9,5.6-2.8c2.9,0.1,5.3,2.5,5.2,5.5v10.9h2.1v0.9h-9.3v-0.9h1.9v-12.3c0-1.2-0.9-2.3-2.2-2.3
		c-0.1,0-0.2,0-0.2,0c-1.6,0-3.2,2.2-3.4,2.8v11.7h1.9v0.9h-9.3v-0.9h2.1v-15.5h-2.1v-0.9h7.4L332,586.3z"/>
	<path d="M356.2,600.5c-2.7,0-4.9-2.1-4.9-8.3c0-0.3,0-0.5,0-0.8h13.2c-0.5-5.3-3.4-8.4-9.2-8.4c-5.1,0-9.2,4.1-9.2,9.2c0,0,0,0,0,0
		c0,5.1,4.6,9.2,9.7,9.2c3.9,0.2,7.5-2.4,8.5-6.1h-1C362.4,598.4,359.5,600.5,356.2,600.5z M355.4,583.8c3.7,0,3.8,4,3.9,6.6h-7.9
		C351.7,585.5,352.9,583.8,355.4,583.8z"/>
	<polygon points="304.5,573.2 304.5,572.3 293.6,572.3 287.9,589.2 282.8,572.3 271,572.3 271,573.2 274.7,573.2 274.7,599.9 
		271,599.9 271,600.8 279.7,600.8 279.7,599.9 276,599.9 276,575 284.2,600.8 285.4,600.8 294.1,574.6 294.1,599.9 290.6,599.9 
		290.6,600.8 304.5,600.8 304.5,599.9 301,599.9 301,573.2 	"/>
	<path d="M548.1,586.3h0.1c1.3-1.9,3.4-2.9,5.7-2.8c2.9,0.1,5.3,2.5,5.2,5.5v10.9h2.1v0.9h-9.3v-0.9h1.9v-12.3
		c0-1.2-0.9-2.3-2.2-2.3c-0.1,0-0.2,0-0.2,0c-1.6,0-3.2,2.2-3.4,2.8v11.7h2v0.9h-9.3v-0.9h2v-15.5h-2.1v-0.9h7.4L548.1,586.3z"/>
	<path d="M536.2,599.9h3.6v0.9h-14.3v-0.9h3.8v-26.7h-3.8v-0.9h14.3v1h-3.6L536.2,599.9z"/>
	<path d="M583.5,601.3c1.3,0,2.3-1.1,2.3-2.3c0-1.3-1-2.3-2.3-2.3c-0.6,0-1.2,0.2-1.6,0.7c-0.9,0.9-0.9,2.4,0,3.3
		C582.3,601.1,582.9,601.3,583.5,601.3z"/>
	<path d="M578,595.8c-1.1,2.9-2.4,4.7-6.4,4.7c-2.7,0-3.9-2.5-3.9-8.3s1.2-8.3,3.9-8.3c1.4-0.1,2.9,0.4,3.9,1.4
		c0.5,0.6-0.3,1.2-0.2,1.1c-0.7,0.4-1.1,1.2-1.1,2c0,1.3,1.1,2.3,2.3,2.3c1.2,0,2.3-1,2.3-2.2c0,0,0-0.1,0-0.1
		c0-3.6-4.4-5.3-7.3-5.3c-5.1,0-9.2,4.1-9.2,9.2c0,5.1,4.1,9.2,9.2,9.2c4.7,0,6.4-2.7,7.3-5.5L578,595.8z"/>
	<path d="M515.7,599c0-1.3-1-2.3-2.3-2.3c-0.6,0-1.2,0.2-1.6,0.7c-0.9,0.9-0.9,2.4,0,3.3c0.4,0.4,1,0.7,1.6,0.7
		c0.4,0,0.8-0.1,1.1-0.3c-0.7,0.9-1.8,1.5-2.9,1.5v0.6c2.2,0,4-1.7,4.1-3.9C515.7,599.1,515.7,599.1,515.7,599z"/>
	<path d="M412.5,587.4v0.9h4.5c0,7.6-1.6,12.5-6.6,12.5c-4.5,0-7.8-4-7.8-14.3s3.4-14.2,7.8-14.2c5.2,0,8.5,3.5,9.5,7.9h1.1V572
		h-0.8l-1.7,1.8c-7-4.5-16.3-2.4-20.8,4.7s-2.4,16.3,4.7,20.8c2.4,1.5,5.2,2.3,8,2.3c7,0,12.9-4,13-13.2h3.5v-0.9L412.5,587.4z"/>
	<path d="M454.7,583c-5.1,0-9.2,4.1-9.2,9.2c0,5.1,4.1,9.2,9.2,9.2c5.1,0,9.2-4.1,9.2-9.2c0,0,0,0,0,0
		C463.8,587.1,459.7,583,454.7,583L454.7,583z M454.7,600.4c-2.7,0-3.9-2.3-3.9-8.3s1.2-8.3,3.9-8.3s3.9,2.3,3.9,8.3
		S457.4,600.4,454.7,600.4z"/>
	<path d="M489.4,584.4v26.7h-2.1v0.9h9.3v-0.9h-2.1v-12.9c1,2,3.2,3.2,5.5,3.1c5.1,0,9.2-4.1,9.2-9.2s-4.1-9.2-9.2-9.2l0,0
		c-2.3-0.2-4.4,1.1-5.5,3.1v-2.5h-7.1v0.9L489.4,584.4z M500.1,583.8c2.7,0,4,2.3,4,8.3s-1.2,8.3-4,8.3c-2.6,0-5.2-2.1-5.5-7.3v-1.9
		C494.9,585.9,497.5,583.8,500.1,583.8z"/>
</g>
</svg>
