<svg width="118" height="117" viewBox="0 0 118 117" fill="none" xmlns="http://www.w3.org/2000/svg">
<g filter="url(#filter0_d)">
<path d="M59 0L69.2916 6.5817L81.3705 4.755L88.0954 14.9537L99.873 18.1978L101.868 30.25L111.308 38.0041L108.229 49.8258L113.699 60.7491L106.077 70.2963L106.631 82.5L95.7857 88.122L91.3282 99.4959L79.1335 100.22L70.4351 108.798L59 104.5L47.5649 108.798L38.8665 100.22L26.6718 99.4959L22.2143 88.122L11.3686 82.5L11.9227 70.2963L4.3013 60.7491L9.77117 49.8258L6.69189 38.0041L16.1317 30.25L18.127 18.1978L29.9046 14.9537L36.6295 4.755L48.7084 6.5817L59 0Z" fill="#FF9129"/>
<path d="M68.7529 7.42415L69.0695 7.62666L69.4412 7.57045L80.8877 5.83939L87.2605 15.5041L87.4674 15.8179L87.8298 15.9178L98.9909 18.9921L100.882 30.4133L100.943 30.7842L101.234 31.0227L110.179 38.3709L107.261 49.5738L107.166 49.9375L107.335 50.2736L112.518 60.625L105.296 69.6725L105.061 69.9662L105.078 70.3417L105.603 81.9065L95.3255 87.2342L94.9918 87.4071L94.8546 87.7571L90.6305 98.5356L79.0742 99.2223L78.6989 99.2446L78.4313 99.5085L70.1883 107.637L59.3518 103.564L59 103.432L58.6482 103.564L47.8116 107.637L39.5687 99.5085L39.3011 99.2446L38.9258 99.2223L27.3695 98.5356L23.1454 87.7571L23.0082 87.4071L22.6745 87.2342L12.3966 81.9065L12.9217 70.3417L12.9387 69.9662L12.7042 69.6725L5.4818 60.625L10.6653 50.2736L10.8336 49.9375L10.7389 49.5738L7.8208 38.3709L16.7665 31.0227L17.0569 30.7842L17.1183 30.4133L19.0092 18.9921L30.1702 15.9178L30.5326 15.8179L30.7395 15.5041L37.1123 5.83939L48.5588 7.57045L48.9305 7.62666L49.2471 7.42415L59 1.18701L68.7529 7.42415Z" stroke="white" stroke-width="2"/>
</g>
<defs>
<filter id="filter0_d" x="0.3013" y="0" width="117.397" height="116.798" filterUnits="userSpaceOnUse" color-interpolation-filters="sRGB">
<feFlood flood-opacity="0" result="BackgroundImageFix"/>
<feColorMatrix in="SourceAlpha" type="matrix" values="0 0 0 0 0 0 0 0 0 0 0 0 0 0 0 0 0 0 127 0"/>
<feOffset dy="4"/>
<feGaussianBlur stdDeviation="2"/>
<feColorMatrix type="matrix" values="0 0 0 0 0 0 0 0 0 0 0 0 0 0 0 0 0 0 0.25 0"/>
<feBlend mode="normal" in2="BackgroundImageFix" result="effect1_dropShadow"/>
<feBlend mode="normal" in="SourceGraphic" in2="effect1_dropShadow" result="shape"/>
</filter>
</defs>
</svg>
